<?xml version="1.0" encoding="UTF-8"?>
<svg id="Layer_2" data-name="Layer 2" xmlns="http://www.w3.org/2000/svg" xmlns:xlink="http://www.w3.org/1999/xlink" version="1.1" viewBox="0 0 526.4 132.9">
  <defs>
    <style>
      .cls-1 {
        fill: #1d0800;
      }

      .cls-1, .cls-2, .cls-3, .cls-4, .cls-5, .cls-6, .cls-7, .cls-8 {
        stroke-width: 0px;
      }

      .cls-2 {
        fill: url(#linear-gradient);
      }

      .cls-9 {
        fill: none;
        isolation: isolate;
        opacity: .1;
        stroke: #231f20;
        stroke-miterlimit: 10;
      }

      .cls-3 {
        fill: url(#linear-gradient-2);
      }

      .cls-4 {
        fill: url(#linear-gradient-3);
      }

      .cls-5 {
        fill: #d54b34;
      }

      .cls-6 {
        fill: #21110c;
      }

      .cls-7 {
        fill: #d64936;
      }

      .cls-8 {
        fill: #fff;
      }

      .cls-10 {
        display: none;
      }
    </style>
    <linearGradient id="linear-gradient" x1="20.2" y1="-598.8" x2="20.2" y2="-717.2" gradientTransform="translate(226.2 -548.9) rotate(-19.2) scale(1 -1)" gradientUnits="userSpaceOnUse">
      <stop offset="0" stop-color="#b5bbbe"/>
      <stop offset=".8" stop-color="#232628"/>
      <stop offset="1" stop-color="#000"/>
    </linearGradient>
    <linearGradient id="linear-gradient-2" x1="23.6" y1="-606.8" x2="23.6" y2="-712.4" gradientTransform="translate(226.2 -548.9) rotate(-19.2) scale(1 -1)" gradientUnits="userSpaceOnUse">
      <stop offset="0" stop-color="#b5bbbe"/>
      <stop offset=".8" stop-color="#232628"/>
      <stop offset="1" stop-color="#000"/>
    </linearGradient>
    <linearGradient id="linear-gradient-3" x1="465.5" y1="1458.5" x2="465.5" y2="1574.4" gradientTransform="translate(0 -1450)" gradientUnits="userSpaceOnUse">
      <stop offset="0" stop-color="#b5bbbe"/>
      <stop offset=".8" stop-color="#232628"/>
      <stop offset="1" stop-color="#000"/>
    </linearGradient>
  </defs>
  <g id="Layer_1" data-name="Layer 1" class="cls-10">
    <g>
      <path class="cls-2" d="M516.6,46.3c10.7,30.9-5.2,64.7-35.5,75.6s-63.5-5.3-74.2-36.2c-10.8-30.9,5.1-64.7,35.4-75.6,30.3-10.9,63.6,5.3,74.3,36.2Z"/>
      <g>
        <path class="cls-8" d="M449.9,80c-2.5.9-4.9,1.3-7.1,1.1-2.2-.2-4.2-.8-5.8-1.9-1.6-1.1-2.8-2.6-3.5-4.6l8-2.9c.3.7.7,1.2,1.3,1.6.6.4,1.3.6,2.2.6s1.7,0,2.7-.4c.9-.3,1.7-.8,2.3-1.4.6-.6,1-1.3,1.2-2s.2-1.5-.1-2.2c-.3-.8-.7-1.4-1.4-1.8-.7-.4-1.4-.7-2.4-.7s-2,.2-3.1.6l-3.2,1.1-1.9-5.6,3.2-1.1c1-.4,1.8-.8,2.4-1.4.6-.6,1.1-1.2,1.3-2,.2-.7.2-1.5-.1-2.2-.2-.7-.6-1.3-1.2-1.7s-1.2-.7-1.9-.8c-.7,0-1.5,0-2.4.3s-1.6.8-2.2,1.3c-.6.6-1,1.2-1.2,1.9s-.2,1.4,0,2.2l-7.6,2.7c-.6-1.9-.7-3.8-.1-5.7s1.6-3.5,3.2-5,3.5-2.7,5.9-3.5,4.6-1.2,6.6-1c2.1.2,3.8.8,5.3,1.8s2.5,2.4,3.1,4.2.6,3.5-.2,5.2c-.8,1.6-2.1,2.9-3.9,3.9v.3c2.7-.6,5-.5,6.7.4,1.8.9,3,2.3,3.7,4.3.6,1.9.7,3.7,0,5.6-.6,1.9-1.8,3.5-3.5,5.1-1.6,1.5-3.7,2.8-6.3,3.7Z"/>
        <path class="cls-8" d="M481.3,69.1c-2.9,1-5.6,1.2-8.1.7-2.5-.6-4.8-2-6.8-4.1s-3.6-5-4.8-8.5c-1.2-3.6-1.7-6.8-1.4-9.7.3-2.9,1.2-5.3,2.8-7.4,1.6-2,3.9-3.6,6.7-4.6,2.9-1,5.6-1.3,8.1-.7s4.8,1.9,6.8,4,3.6,4.9,4.8,8.4c1.2,3.6,1.7,6.8,1.5,9.7s-1.2,5.4-2.8,7.5c-1.6,2.1-3.9,3.7-6.8,4.7h0ZM479.1,62.7c1.7-.6,2.8-2,3.3-4.1s.1-4.9-1.2-8.5c-.8-2.3-1.7-4.2-2.7-5.5s-2.1-2.2-3.2-2.7c-1.1-.4-2.2-.5-3.4,0-1.7.6-2.8,2-3.2,4-.5,2.1-.1,4.9,1.1,8.4.8,2.4,1.7,4.3,2.7,5.6,1,1.4,2.1,2.3,3.2,2.8,1.1.4,2.3.4,3.4,0h0Z"/>
        <path class="cls-8" d="M437.1,90.3l3.3-1.2,4.4,4.1h.1l.8-6,3.3-1.2-1.7,9.7,1.4,4.1-3,1.1-1.4-4.1-7.2-6.5h0Z"/>
        <path class="cls-8" d="M454.5,97.7l-4.2-12.1,8.6-3.1.8,2.4-5.6,2,.9,2.5,5.2-1.9.8,2.4-5.2,1.9.9,2.5,5.6-2,.8,2.4-8.6,3h0Z"/>
        <path class="cls-8" d="M467.7,93l-3.2,1.2v-13.6l4-1.4,8.4,10.6-3.2,1.2-6-8h-.1v10h.1ZM465.6,88.3l6.7-2.4.8,2.2-6.7,2.4-.8-2.2Z"/>
        <path class="cls-8" d="M478.1,89.2l-4.2-12.1,5.1-1.8c.9-.3,1.8-.5,2.6-.4.8,0,1.5.4,2,.8.6.5,1,1.1,1.3,2,.3.8.4,1.6.2,2.3-.2.7-.5,1.4-1.1,1.9-.6.6-1.3,1-2.3,1.3l-3.2,1.2-.8-2.3,2.7-1c.4-.2.8-.4,1.1-.6.3-.2.4-.5.5-.8s0-.6-.1-1-.3-.7-.6-.8c-.2-.2-.5-.3-.9-.3s-.7,0-1.2.2l-1.5.5,3.4,9.8s-3,1.1-3,1.1ZM483.1,81.2l5,4.4-3.3,1.2-4.9-4.5,3.2-1.1h0Z"/>
        <path class="cls-8" d="M493,74.3c-.2-.4-.5-.7-.9-.8h-1.5c-.4,0-.7.3-.9.5-.2.2-.4.4-.4.6-.1.2-.1.4,0,.7.1.2.1.3.3.4.1,0,.3.2.5.2h2.6c.7-.2,1.3-.2,1.8-.2s1,.2,1.4.4c.4.2.8.4,1.1.8.3.3.5.7.7,1.2.3.8.3,1.5.1,2.2-.2.7-.6,1.3-1.2,1.9s-1.5,1-2.5,1.4-2,.5-2.9.5-1.6-.3-2.3-.7c-.6-.5-1.1-1.2-1.5-2.1l2.9-1c.2.4.4.7.7.9.3.2.6.3,1,.3s.8,0,1.2-.2c.4,0,.7-.3,1-.5.2-.2.4-.4.5-.7.1-.2.1-.5,0-.7s-.2-.4-.4-.5c-.2,0-.5-.2-.8-.2h-1.2l-1.4.2c-1.2,0-2.1,0-2.9-.3s-1.4-.9-1.7-1.9c-.3-.7-.3-1.5-.1-2.2.2-.7.6-1.4,1.3-1.9s1.4-1,2.3-1.4c1-.3,1.8-.5,2.7-.4.8,0,1.5.3,2.1.7.6.4,1,1,1.3,1.8l-2.9.8v.2Z"/>
      </g>
      <path class="cls-9" d="M520.9,44.7c11.5,33.3-5.6,69.9-38.3,81.6s-68.6-5.7-80.1-39,5.6-69.9,38.3-81.6,68.6,5.7,80.1,39Z"/>
      <g>
        <path class="cls-8" d="M412.1,69.6l.2,1.6c-.3,0-.6.3-.9.5-.2.2-.4.4-.6.7-.2.3-.3.6-.3.9s-.1.6,0,1c.1.6.3,1.2.7,1.6s.9.8,1.5,1,1.4.3,2.2,0c.9,0,1.6-.3,2.1-.7s1-.8,1.2-1.3.3-1.1.3-1.7-.1-.7-.3-.9c-.1-.3-.3-.6-.5-.8-.2-.2-.5-.4-.7-.5-.3,0-.6-.2-.9-.2l-.2-1.6c.5,0,1,0,1.5.3.5.2.9.5,1.2.8.4.3.7.8.9,1.2.2.5.4,1,.5,1.6.1.9,0,1.8-.3,2.6-.3.8-.9,1.4-1.7,1.9-.8.5-1.7.8-2.8,1-1.1,0-2.1,0-3-.3s-1.6-.8-2.1-1.5-.8-1.5-1-2.4c-.1-.6-.1-1.1,0-1.6s.3-1,.5-1.4c.3-.4.6-.8,1-1.1.5-.4.9-.6,1.5-.8h0Z"/>
        <path class="cls-8" d="M419.5,64.1l-10.5-1.8,1.1-6.7,1.4.2-.8,5.1,3.2.5.8-4.7,1.3.3-.8,4.7,3.2.5.8-5.1,1.4.2-1.1,6.8Z"/>
        <path class="cls-8" d="M422.1,52.7l-9.7-4.5.7-1.5,8.4,3.9,2-4.5,1.3.6-2.7,6h0Z"/>
        <path class="cls-8" d="M427.1,42.9l-8.2-6.9,4.2-5.2,1.1.9-3.2,4,2.5,2.1,3-3.7,1.1.9-3,3.7,2.5,2.1,3.2-4,1.1.9-4.3,5.2h0Z"/>
        <path class="cls-8" d="M434.9,34.3l-6.1-8.9,3.2-2.3c.6-.4,1.2-.7,1.7-.8.5-.1,1,0,1.5.2.4.2.8.5,1.1,1,.3.4.4.7.4,1.1s0,.7-.1,1-.3.6-.5.9h.1c.3-.1.6-.2,1-.2s.8.1,1.2.3c.4.2.8.5,1.1,1,.3.5.5.9.5,1.4s-.1,1-.4,1.5-.8,1-1.4,1.5l-3.3,2.3h0ZM432.7,28.3l1.8-1.2c.3-.2.5-.5.7-.7.2-.3.2-.6.2-.9s-.1-.6-.3-.9c-.3-.4-.6-.6-1-.7s-.9.1-1.4.4l-1.8,1.3,1.8,2.7h0ZM435.4,32.2l1.9-1.3c.6-.4,1-.9,1.1-1.3s0-.9-.2-1.2c-.2-.3-.4-.5-.7-.6-.3-.1-.6-.2-1-.1-.4,0-.7.2-1.1.4l-1.9,1.4,1.9,2.7h0Z"/>
        <path class="cls-8" d="M445.2,27.9l-3.4-10.3,3.6-1.2c.8-.3,1.5-.3,2.1-.2.6.1,1.1.3,1.5.7.4.4.7.9.9,1.5.2.6.3,1.2.2,1.8-.1.6-.4,1.1-.8,1.5s-1,.8-1.8,1.1l-2.7.9-.4-1.3,2.6-.9c.5-.2.9-.4,1.1-.6.3-.2.4-.5.5-.9.1-.3,0-.7-.1-1.1s-.3-.7-.5-.9c-.2-.2-.5-.4-.9-.4s-.8,0-1.3.2l-1.9.6,2.9,9-1.6.5h0ZM448.7,21.5l4,3.8-1.7.6-4-3.8,1.7-.6Z"/>
        <path class="cls-8" d="M457.7,24.6h-1.7c0,.1,3.4-10.9,3.4-10.9h1.8c0-.1,4.2,10.6,4.2,10.6h-1.7c0,.1-3.3-8.7-3.3-8.7h-.1l-2.6,9h0ZM457.8,20.3l5.5-.2v1.4l-5.5.2v-1.4Z"/>
        <path class="cls-8" d="M470,15.5l.3-1.4,8,1.9-.3,1.4-3.2-.8-2.1,9.2-1.6-.4,2.1-9.2-3.2-.7h0Z"/>
        <path class="cls-8" d="M486.2,19.4l-4.6,9.8-1.4-.7,4.6-9.8s1.4.7,1.4.7Z"/>
        <path class="cls-8" d="M499.5,28.7l-6.7,8.4-1.1-.9.7-9.6h-.1c0-.1-4.9,6.1-4.9,6.1l-1.2-1,6.7-8.4,1.1,1-.7,9.6h.1l4.9-6.1s1.2.9,1.2.9Z"/>
        <path class="cls-8" d="M506.1,42.8c.2-.3.4-.5.5-.8s.2-.6.2-.9,0-.6-.1-.9c-.1-.3-.2-.6-.4-.9-.3-.5-.8-.9-1.3-1.1-.5-.2-1.1-.3-1.8-.2-.6,0-1.3.4-2.1.9-.7.5-1.3,1-1.6,1.6-.3.6-.5,1.1-.5,1.7s.2,1.1.5,1.7c.3.5.7.9,1.1,1.1.4.2.9.3,1.4.3s1-.2,1.5-.5l.2.4-1.7-2.6,1.1-.7,2.3,3.6-1,.7c-.7.5-1.5.8-2.3.8s-1.5,0-2.1-.5c-.7-.4-1.2-.9-1.7-1.6-.5-.8-.8-1.7-.8-2.5s.2-1.7.7-2.5,1.2-1.5,2.1-2.1c.7-.5,1.4-.8,2.1-1s1.4-.2,2,0c.6,0,1.2.3,1.7.7s1,.8,1.4,1.4c.3.5.5,1,.7,1.5.1.5.2,1,.1,1.5,0,.5-.2,1-.4,1.4-.2.5-.5.9-.9,1.2l-.9-1.6h0Z"/>
      </g>
      <g>
        <path class="cls-8" d="M441.3,106.2l-3.8,7.3-.9-.5,3.3-6.4h0l-2.4.2.5-.9,2.5-.2.8.5Z"/>
        <path class="cls-8" d="M448,108.7c.3,0,.6.3.9.5s.5.5.7.9.3.8.3,1.3-.1,1.2-.3,1.9c-.2.7-.5,1.3-.8,1.8s-.6.9-1,1.2c-.4.3-.8.5-1.2.6h-1.3c-.4,0-.8-.3-1.1-.6-.3-.3-.5-.6-.6-1s-.2-.8-.1-1.2l1,.3c0,.4.1.7.2,1,.2.3.5.5.9.7.6.2,1.2,0,1.7-.4s.9-1.1,1.2-2.1h-.1c-.2.2-.4.3-.7.4-.2,0-.5.2-.8.2h-.8c-.5,0-.8-.4-1.2-.7-.3-.3-.5-.7-.6-1.2s-.1-.9.1-1.5c.1-.5.4-.9.7-1.2.3-.3.7-.6,1.2-.7.7-.2,1.2-.2,1.7,0v-.2ZM447.8,109.5h-1c-.3,0-.6.2-.8.5-.2.2-.4.5-.5.8s-.1.7,0,1,.2.6.4.8c.2.2.5.4.8.5h.7c.2,0,.5,0,.7-.2s.4-.3.5-.5c.2-.2.3-.4.3-.6.1-.3.1-.6,0-.9s-.2-.6-.4-.8c-.1-.4-.4-.6-.7-.7h0Z"/>
        <path class="cls-8" d="M457.1,110.3c.3,0,.7,0,1,.3.3,0,.6.4.9.7s.5.7.6,1.2.2,1.1.1,1.9c-.1.7-.2,1.4-.4,1.9-.2.6-.4,1-.7,1.4s-.6.6-1,.8c-.4.2-.8.2-1.3.2s-.9-.2-1.2-.4c-.4-.2-.6-.5-.8-.8-.2-.3-.3-.7-.4-1.2h1c.1.5.2.8.5,1.1.2.3.6.4,1,.4.6,0,1.2-.2,1.6-.7s.7-1.3.7-2.3h-.1c-.2.2-.4.4-.6.5s-.5.3-.7.3h-.8c-.5,0-.9-.2-1.3-.4-.4-.3-.7-.6-.9-1-.2-.4-.3-.9-.3-1.4s.2-1,.4-1.4c.3-.4.6-.7,1-.9.6-.2,1.1-.3,1.7-.3h0ZM457,111.2c-.3,0-.7,0-.9.2-.3,0-.5.4-.7.6-.2.3-.3.6-.3.9s0,.7.2.9c.1.3.3.5.6.7.3.2.6.3.9.3h.7c.2,0,.4-.2.6-.4s.3-.4.4-.6.2-.4.2-.7,0-.6-.2-.9c-.1-.3-.3-.5-.6-.7-.2,0-.5,0-.9-.2h0Z"/>
        <path class="cls-8" d="M464.3,117v-.8c-.1,0,2.7-6.2,2.7-6.2h.6l.2,1.2h-.4l-2.1,4.8h0l4.9-.6v.9c.1,0-5.9.7-5.9.7h0ZM468.5,118.2l-.3-1.9v-.4c-.1,0-.9-5.9-.9-5.9h1l1.2,8.1h-1Z"/>
        <path class="cls-8" d="M478.7,110.6l.3.8-5.4,1.9-.3-.8,5.4-1.9Z"/>
        <path class="cls-8" d="M484.4,112.9l-.4-.6.8-4c.1-.5.2-.9.2-1.2s.1-.6,0-.9c0-.2-.1-.5-.2-.7s-.3-.4-.6-.5c-.2,0-.5-.2-.7,0-.3,0-.5,0-.8.3-.3.2-.5.4-.6.6s-.2.5-.2.8.1.5.3.8l-.8.5c-.2-.4-.4-.8-.4-1.3s.1-.8.4-1.2c.2-.4.6-.7,1-.9.4-.3.8-.4,1.3-.4s.8,0,1.2.3.7.5.9.8c.2.3.3.5.3.8.1.3.1.7,0,1.1s-.2,1-.3,1.7l-.6,2.7h0l3.3-1.9.5.8-4.6,2.5h0Z"/>
        <path class="cls-8" d="M495.3,105.1c-.5.4-.9.7-1.5.7s-1.1,0-1.7-.4-1.2-.8-1.8-1.4c-.6-.7-1-1.3-1.3-1.9s-.3-1.2-.3-1.7c.1-.5.4-1,.8-1.4s.9-.6,1.5-.7,1.1,0,1.7.4,1.2.8,1.8,1.4c.6.7,1,1.3,1.3,1.9s.3,1.2.3,1.7-.3,1-.8,1.4ZM494.7,104.5c.4-.4.6-.9.4-1.6-.1-.7-.6-1.4-1.3-2.2-.5-.5-1-.9-1.4-1.2-.5-.3-.9-.4-1.3-.4s-.7,0-1,.4c-.4.4-.6.9-.4,1.6.1.7.6,1.4,1.3,2.2.5.5,1,.9,1.4,1.2.5.3.9.4,1.3.4s.7-.2,1-.4Z"/>
        <path class="cls-8" d="M500.9,99l-.6-.4-.8-4c-.1-.5-.2-.9-.3-1.2s-.2-.6-.3-.8c-.1-.2-.3-.4-.5-.5-.2-.2-.5-.3-.7-.3-.3,0-.5,0-.7.2s-.4.3-.6.6c-.2.3-.3.5-.3.8s0,.5.1.8c.1.2.3.5.6.6l-.6.8c-.4-.3-.7-.6-.8-1-.2-.4-.2-.8-.2-1.2.1-.4.2-.9.5-1.2.3-.4.6-.7,1-.9.4-.2.8-.3,1.2-.2s.8.2,1.1.4c.2.2.5.4.6.6.2.3.3.6.5,1s.3,1,.4,1.7l.5,2.7h.1l2.2-3.2.7.5-3.1,4.2h0Z"/>
        <path class="cls-8" d="M505,89.4l-.8-.3-3.8-5.6.2-.6,1.2.5-.2.4,2.9,4.3h.1l2-4.5.8.3-2.4,5.5h0ZM508.1,86.5l-1.8-.8h-.4l-5.4-2.4.4-.9,7.6,3.3-.4.8h0Z"/>
      </g>
    </g>
    <g>
      <path class="cls-5" d="M53.5,57.3c-5.3,3.3-13.7,5.5-23.3,5.5-16,0-29-6.1-29-13.7s13-13.6,29-13.6,18,2.2,23.3,5.5c-3.6-1-7.8-1.6-12.4-1.6-12.5,0-22.6,4.4-22.6,9.8s10.1,9.8,22.6,9.8,8.9-.6,12.4-1.7ZM53.3,44.2c-9.5,0-18,2.2-23.3,5.5,3.6-1,7.8-1.6,12.4-1.6,12.5,0,22.6,4.4,22.6,9.8s-10,9.7-22.5,9.7-8.9-.6-12.4-1.6c5.3,3.3,13.7,5.5,23.3,5.5,16,0,29-6.1,29-13.6s-13.1-13.7-29.1-13.7Z"/>
      <path class="cls-6" d="M128.1,42.8v4.7c-2.3-1.9-4.6-2.8-7-2.8s-4.9,1-6.8,2.9c-1.8,1.9-2.8,4.2-2.8,7s.9,5,2.8,6.9,4.1,2.8,6.8,2.8,2.6-.2,3.5-.7c.5-.2,1.1-.5,1.7-.9s1.2-.8,1.8-1.4v4.7c-2.2,1.3-4.6,1.9-7.1,1.9-3.7,0-6.9-1.3-9.5-3.9s-3.9-5.8-3.9-9.5,1.1-6.3,3.3-8.9c2.7-3.2,6.2-4.8,10.5-4.8,2.3,0,4.5.7,6.7,2ZM138.5,54.3c0-3.7,1.3-6.8,4-9.4s5.9-3.9,9.6-3.9,6.9,1.3,9.5,4c2.7,2.7,4,5.8,4,9.6s-1.3,6.9-4,9.5-5.9,3.9-9.7,3.9-6.4-1.2-9-3.5c-2.9-2.7-4.4-6.1-4.4-10.2h0ZM142.5,54.3c0,2.9,1,5.2,2.9,7.1,1.9,1.9,4.1,2.8,6.7,2.8s5-.9,6.9-2.8c1.9-1.9,2.8-4.2,2.8-7s-.9-5.1-2.8-7c-1.8-1.9-4.1-2.8-6.8-2.8s-5,.9-6.9,2.8c-1.9,1.9-2.8,4.2-2.8,6.9h0ZM186.4,56.3l8.1,11.1h-4.8l-7.4-10.6h-.7v10.6h-3.9v-26h4.6c3.4,0,5.9.6,7.4,1.9,1.7,1.4,2.5,3.3,2.5,5.7s-.5,3.4-1.6,4.8c-1.1,1.3-2.5,2.1-4.2,2.5h0ZM181.5,53.3h1.2c3.7,0,5.6-1.4,5.6-4.3s-1.8-4-5.4-4h-1.4v8.3h0Z"/>
      <path class="cls-5" d="M221.7,45.3l-3.2,1.9c-.6-1-1.2-1.7-1.7-2-.6-.4-1.3-.5-2.2-.5s-2,.3-2.7.9c-.7.6-1.1,1.4-1.1,2.3,0,1.3.9,2.3,2.8,3.1l2.6,1.1c2.1.9,3.7,1.9,4.6,3.1,1,1.2,1.5,2.7,1.5,4.5s-.8,4.4-2.4,5.9c-1.6,1.6-3.6,2.4-6,2.4s-4.1-.7-5.6-2c-1.4-1.3-2.4-3.2-2.7-5.6l4-.9c.2,1.5.5,2.6.9,3.2.8,1.1,2,1.7,3.5,1.7s2.2-.4,3-1.2,1.2-1.9,1.2-3.1-.1-1-.2-1.4c-.1-.4-.4-.8-.7-1.2s-.7-.7-1.1-1c-.5-.3-1-.6-1.7-.9l-2.5-1c-3.6-1.5-5.3-3.7-5.3-6.6s.7-3.6,2.2-4.9c1.5-1.3,3.4-2,5.6-2,3.1-.2,5.5,1.2,7.2,4.2h0ZM232,54.3c0-3.7,1.3-6.8,4-9.4s5.9-3.9,9.6-3.9,6.9,1.3,9.5,4c2.7,2.7,4,5.8,4,9.6s-1.3,6.9-4,9.5c-2.7,2.6-5.9,3.9-9.7,3.9s-6.4-1.2-9-3.5c-2.9-2.7-4.4-6.1-4.4-10.2h0ZM236,54.3c0,2.9,1,5.2,2.9,7.1,1.9,1.9,4.1,2.8,6.7,2.8s5-.9,6.9-2.8c1.9-1.9,2.8-4.2,2.8-7s-.9-5.1-2.8-7c-1.8-1.9-4.1-2.8-6.8-2.8s-5,.9-6.9,2.8c-1.9,1.9-2.8,4.2-2.8,6.9h0ZM273.6,41.4v15.6c0,2.2.4,3.9,1.1,4.9,1.1,1.5,2.6,2.2,4.6,2.2s3.5-.7,4.6-2.2c.7-1,1.1-2.6,1.1-4.9v-15.6h3.9v16.7c0,2.7-.9,5-2.6,6.8-1.9,2-4.3,3-7.1,3s-5.2-1-7.1-3c-1.7-1.8-2.6-4-2.6-6.8v-16.7s4.1,0,4.1,0ZM310.2,56.3l8.1,11.1h-4.8l-7.5-10.7h-.7v10.6h-3.9v-26h4.6c3.4,0,5.9.6,7.4,1.9,1.7,1.4,2.5,3.3,2.5,5.7s-.5,3.4-1.6,4.8c-1,1.4-2.4,2.2-4.1,2.6ZM305.3,53.3h1.2c3.7,0,5.6-1.4,5.6-4.3s-1.8-4-5.4-4h-1.4v8.3h0ZM347.3,42.8v4.7c-2.3-1.9-4.6-2.8-7-2.8s-4.9,1-6.8,2.9c-1.8,1.9-2.8,4.2-2.8,7s.9,5,2.8,6.9,4.1,2.8,6.8,2.8,2.6-.2,3.5-.7c.5-.2,1.1-.5,1.7-.9s1.2-.8,1.8-1.4v4.7c-2.2,1.3-4.6,1.9-7.1,1.9-3.7,0-6.9-1.3-9.5-3.9s-3.9-5.8-3.9-9.5,1.1-6.3,3.3-8.9c2.7-3.2,6.2-4.8,10.5-4.8,2.2,0,4.5.7,6.7,2ZM373.1,45.1h-10.4v6.3h10.1v3.6h-10.1v8.7h10.4v3.7h-14.4v-26h14.4v3.7Z"/>
      <path class="cls-5" d="M389.4,45.1l2.1,2.7h-1.5l-1.9-2.6v2.6h-1.2v-6.5h1.3c.9,0,1.6.2,2,.5.5.4.7.9.7,1.5s-.1.8-.4,1.1c-.3.4-.6.6-1.1.7h0ZM388.1,44.2h.2c.9,0,1.3-.3,1.3-.9s-.4-.9-1.3-.9h-.3v1.8h.1,0ZM394.5,44.6c0,1.6-.5,2.9-1.6,4s-2.4,1.6-4,1.6-2.9-.6-4-1.7c-1.1-1.1-1.6-2.4-1.6-4s.2-1.7.5-2.4c.4-.8.9-1.4,1.5-1.9,1-.9,2.2-1.3,3.5-1.3s1.6.2,2.3.5c1,.4,1.8,1.1,2.4,2.1.7,1,1,2,1,3.1h0ZM388.8,39.8c-1.3,0-2.4.5-3.3,1.4s-1.4,2.1-1.4,3.4.5,2.5,1.4,3.4,2,1.4,3.3,1.4,2.4-.5,3.3-1.4,1.4-2.1,1.4-3.4-.2-1.5-.5-2.2c-.4-.7-.8-1.3-1.4-1.7-.8-.6-1.7-.9-2.8-.9Z"/>
      <path class="cls-6" d="M112.4,88.4v7.7h-2.6v-7.7h-2.1v-2.2h6.8v2.2h-2.1ZM122.3,90.1h3.7v-3.8h2.6v9.9h-2.6v-4.1h-3.7v4.1h-2.6v-9.9h2.6s0,3.8,0,3.8ZM140.4,88.4h-3.1v1.7h2.9v2.2h-2.9v1.7h3.1v2.2h-5.6v-9.9h5.6v2.1h0ZM158.7,88.4v7.7h-2.6v-7.7h-2.1v-2.2h6.8v2.2h-2.1,0ZM171.7,88.4h-3.1v1.7h2.9v2.2h-2.9v1.7h3.1v2.2h-5.7v-9.9h5.6v2.1h0ZM184.7,89.6c-.6-.7-1.3-1.1-2.2-1.1s-.7,0-1.1.2c-.3,0-.6.3-.8.6-.2.2-.4.5-.6.9-.1.3-.2.7-.2,1.1s.1.8.2,1.1c.1.3.3.6.6.9s.5.4.9.6c.3,0,.7.2,1.1.2.8,0,1.6-.4,2.2-1.1v3h-.3c-.4.2-.8.3-1.1.4h-1c-.7,0-1.3,0-2-.4-.6-.3-1.2-.6-1.7-1.1s-.9-1-1.1-1.7c-.3-.6-.4-1.4-.4-2.1s.1-1.5.4-2.1c.3-.6.7-1.2,1.1-1.6.5-.5,1-.8,1.7-1.1.6-.3,1.3-.4,2-.4h1.2c.4,0,.8.2,1.2.4v3.1h0v.2ZM193.5,90.1h3.7v-3.8h2.6v9.9h-2.6v-4.1h-3.7v4.1h-2.6v-9.9h2.6v3.8ZM205.9,96.2v-9.9h2.6l4.8,6.1v-6.1h2.6v9.9h-2.6l-4.8-6.1v6.1h-2.6ZM224.3,91.2c0,.4.1.8.2,1.1.1.3.4.6.6.9.3.2.5.4.9.6.3,0,.7.2,1.1.2s.7,0,1.1-.2c.3,0,.6-.3.9-.6.3-.2.5-.5.6-.9s.2-.7.2-1.1-.1-.8-.2-1.1-.4-.6-.6-.9c-.3-.2-.6-.4-.9-.6-.3,0-.7-.2-1.1-.2s-.7,0-1.1.2c-.3,0-.6.3-.9.6-.3.2-.5.5-.6.9s-.2.7-.2,1.1ZM221.6,91.2c0-.7.1-1.4.4-2.1.3-.6.6-1.2,1.1-1.7s1.1-.8,1.7-1.1c.7-.3,1.4-.4,2.2-.4s1.5,0,2.2.4,1.3.6,1.7,1.1c.5.5.9,1,1.1,1.7.3.6.4,1.3.4,2.1s-.1,1.4-.4,2.1c-.3.6-.7,1.2-1.1,1.7-.5.5-1.1.8-1.7,1.1-.7.3-1.4.4-2.2.4s-1.5,0-2.2-.4-1.2-.6-1.7-1.1-.9-1-1.1-1.7c-.2-.7-.4-1.3-.4-2.1ZM240.9,86.3v7.7h3.1v2.2h-5.7v-9.9h2.6,0ZM251.5,91.2c0,.4.1.8.2,1.1.1.3.4.6.6.9.3.2.5.4.9.6.3,0,.7.2,1.1.2s.7,0,1.1-.2c.3,0,.6-.3.9-.6.3-.2.5-.5.6-.9.1-.3.2-.7.2-1.1s-.1-.8-.2-1.1c-.1-.3-.4-.6-.6-.9-.3-.2-.6-.4-.9-.6-.3,0-.7-.2-1.1-.2s-.7,0-1.1.2c-.3,0-.6.3-.9.6-.3.2-.5.5-.6.9-.2.4-.2.7-.2,1.1h0ZM248.8,91.2c0-.7.1-1.4.4-2.1.3-.6.7-1.2,1.1-1.7.5-.5,1.1-.8,1.7-1.1.7-.3,1.4-.4,2.2-.4s1.5,0,2.2.4c.7.3,1.3.6,1.7,1.1.5.5.9,1,1.1,1.7.3.6.4,1.3.4,2.1s-.1,1.4-.4,2.1c-.3.6-.7,1.2-1.1,1.7-.5.5-1.1.8-1.7,1.1-.7.3-1.4.4-2.2.4s-1.5,0-2.2-.4-1.2-.6-1.7-1.1-.9-1-1.1-1.7c-.3-.7-.4-1.3-.4-2.1ZM270.3,90.6h5.1c0,.5,0,1-.1,1.4,0,.4-.1.8-.3,1.2-.2.5-.4,1-.8,1.4-.3.4-.7.7-1.1,1s-.9.5-1.4.6-1,.2-1.6.2-1.5,0-2.1-.4-1.2-.6-1.6-1.1c-.5-.5-.8-1-1.1-1.7-.3-.6-.4-1.4-.4-2.1s.1-1.5.4-2.1.6-1.2,1.1-1.7,1-.8,1.7-1.1c.6-.3,1.4-.4,2.2-.4s1.9.2,2.7.7c.8.4,1.4,1.1,1.9,2.1l-2.4,1c-.2-.5-.5-.9-.9-1.2-.4-.2-.8-.4-1.2-.4s-.7,0-1.1.2c-.3,0-.6.3-.8.6-.2.3-.4.6-.5,1s-.2.8-.2,1.3.1.8.2,1.2c.1.4.3.7.5.9.2.3.5.5.8.6s.7.2,1.1.2h.7c.2,0,.4-.2.6-.3.2,0,.4-.3.5-.5s.2-.4.2-.7h-2.1v-1.8h0ZM282.8,91.4l-3.6-5.2h3.1l1.8,2.7,1.8-2.7h3.1l-3.6,5.2v4.8h-2.6v-4.8h0ZM305.2,90.8h.9c.9,0,1.4-.4,1.4-1.2s-.5-1.2-1.4-1.2h-.9s0,2.4,0,2.4ZM305.2,96.2h-2.6v-9.9h4.1c1.1,0,2,.3,2.6.9s.9,1.4.9,2.4-.3,1.9-.9,2.4c-.6.6-1.4.9-2.6.9h-1.5s0,3.3,0,3.3ZM321.2,88.4h-3.1v1.7h2.9v2.2h-2.9v1.7h3.1v2.2h-5.6v-9.9h5.6v2.1h0ZM329.4,91.2c0,.4.1.8.2,1.1.1.3.4.6.6.9.3.2.5.4.9.6.3,0,.7.2,1.1.2s.7,0,1.1-.2c.3,0,.6-.3.9-.6.3-.2.5-.5.6-.9s.2-.7.2-1.1-.1-.8-.2-1.1-.4-.6-.6-.9c-.3-.2-.6-.4-.9-.6-.3,0-.7-.2-1.1-.2s-.7,0-1.1.2c-.3,0-.6.3-.9.6-.3.2-.5.5-.6.9s-.2.7-.2,1.1ZM326.7,91.2c0-.7.1-1.4.4-2.1.3-.6.6-1.2,1.1-1.7s1.1-.8,1.7-1.1c.7-.3,1.4-.4,2.2-.4s1.5,0,2.2.4,1.3.6,1.7,1.1c.5.5.9,1,1.1,1.7.3.6.4,1.3.4,2.1s-.1,1.4-.4,2.1c-.3.6-.7,1.2-1.1,1.7-.5.5-1.1.8-1.7,1.1-.7.3-1.4.4-2.2.4s-1.5,0-2.2-.4-1.2-.6-1.7-1.1-.9-1-1.1-1.7c-.3-.7-.4-1.3-.4-2.1ZM346,90.8h.9c.9,0,1.4-.4,1.4-1.2s-.5-1.2-1.4-1.2h-.9s0,2.4,0,2.4ZM346,96.2h-2.6v-9.9h4.1c1.1,0,2,.3,2.6.9s.9,1.4.9,2.4-.3,1.9-.9,2.4c-.6.6-1.4.9-2.6.9h-1.5s0,3.3,0,3.3ZM359,86.3v7.7h3.1v2.2h-5.7v-9.9s2.6,0,2.6,0ZM373.1,88.4h-3.1v1.7h2.9v2.2h-2.9v1.7h3.1v2.2h-5.6v-9.9h5.6v2.1h0Z"/>
    </g>
  </g>
  <g>
    <g>
      <path class="cls-3" d="M514.5,48.8c9.5,27.6-4.6,57.7-31.7,67.5-27,9.7-56.7-4.7-66.2-32.3-9.6-27.6,4.6-57.7,31.6-67.5,27-9.7,56.7,4.7,66.3,32.3Z"/>
      <g>
        <path class="cls-8" d="M455,78.9c-2.2.8-4.4,1.2-6.3,1-2-.2-3.7-.7-5.2-1.7-1.4-1-2.5-2.3-3.1-4.1l7.1-2.6c.3.6.6,1.1,1.2,1.4.5.4,1.2.5,2,.5s1.5,0,2.4-.4c.8-.3,1.5-.7,2.1-1.2.5-.5.9-1.2,1.1-1.8s.2-1.3,0-2c-.3-.7-.6-1.2-1.2-1.6s-1.2-.6-2.1-.6-1.8.2-2.8.5l-2.9,1-1.7-5,2.9-1c.9-.4,1.6-.7,2.1-1.2s1-1.1,1.2-1.8c.2-.6.2-1.3,0-2-.2-.6-.5-1.2-1.1-1.5s-1.1-.6-1.7-.7c-.6,0-1.3,0-2.1.3s-1.4.7-2,1.2c-.5.5-.9,1.1-1.1,1.7s-.2,1.2,0,2l-6.8,2.4c-.5-1.7-.6-3.4,0-5.1s1.4-3.1,2.9-4.5,3.1-2.4,5.3-3.1,4.1-1.1,5.9-.9c1.9.2,3.4.7,4.7,1.6s2.2,2.1,2.8,3.7.5,3.1-.2,4.6c-.7,1.4-1.9,2.6-3.5,3.5v.3c2.4-.5,4.5-.4,6,.4,1.6.8,2.7,2.1,3.3,3.8.5,1.7.6,3.3,0,5-.5,1.7-1.6,3.1-3.1,4.6-1.4,1.3-3.3,2.5-5.6,3.3h-.5Z"/>
        <path class="cls-8" d="M483,69.2c-2.6.9-5,1.1-7.2.6s-4.3-1.8-6.1-3.7-3.2-4.5-4.3-7.6c-1.1-3.2-1.5-6.1-1.2-8.7.3-2.6,1.1-4.7,2.5-6.6,1.4-1.8,3.5-3.2,6-4.1,2.6-.9,5-1.2,7.2-.6s4.3,1.7,6.1,3.6,3.2,4.4,4.3,7.5c1.1,3.2,1.5,6.1,1.3,8.7s-1.1,4.8-2.5,6.7c-1.4,1.9-3.5,3.3-6.1,4.2h0ZM481.1,63.5c1.5-.5,2.5-1.8,2.9-3.7s0-4.4-1.1-7.6c-.7-2.1-1.5-3.7-2.4-4.9s-1.9-2-2.9-2.4-2-.4-3,0c-1.5.5-2.5,1.8-2.9,3.6-.4,1.9,0,4.4,1,7.5.7,2.1,1.5,3.8,2.4,5s1.9,2.1,2.9,2.5c1,.4,2.1.4,3,0h.1Z"/>
        <path class="cls-8" d="M443.6,88.1l2.9-1.1,3.9,3.7h0l.7-5.4,2.9-1.1-1.5,8.7,1.2,3.7-2.7,1-1.2-3.7-6.4-5.8h.2Z"/>
        <path class="cls-8" d="M459.1,94.7l-3.7-10.8,7.7-2.8.7,2.1-5,1.8.8,2.2,4.6-1.7.7,2.1-4.6,1.7.8,2.2,5-1.8.7,2.1-7.7,2.7v.2Z"/>
        <path class="cls-8" d="M470.9,90.5l-2.9,1.1v-12.1l3.6-1.2,7.5,9.5-2.9,1.1-5.4-7.1h0v8.9-.2ZM469,86.3l6-2.1.7,2-6,2.1-.7-2Z"/>
        <path class="cls-8" d="M480.2,87.1l-3.7-10.8,4.6-1.6c.8-.3,1.6-.4,2.3-.4s1.3.4,1.8.7c.5.4.9,1,1.2,1.8.3.7.4,1.4.2,2.1-.2.6-.4,1.2-1,1.7-.5.5-1.2.9-2.1,1.2l-2.9,1.1-.7-2.1,2.4-.9c.4-.2.7-.4,1-.5.3-.2.4-.4.4-.7v-.9c0-.4-.3-.6-.5-.7-.2-.2-.4-.3-.8-.3s-.6,0-1.1.2l-1.3.4,3,8.7-2.7,1h0ZM484.6,80l4.5,3.9-2.9,1.1-4.4-4,2.9-1h-.1Z"/>
        <path class="cls-8" d="M493.5,73.8c-.2-.4-.4-.6-.8-.7h-1.3c-.4,0-.6.3-.8.4-.2.2-.4.4-.4.5v.6c0,.2,0,.3.3.4,0,0,.3.2.4.2h2.3c.6-.2,1.2-.2,1.6-.2s.9.2,1.2.4c.4.2.7.4,1,.7.3.3.4.6.6,1.1.3.7.3,1.3,0,2-.2.6-.5,1.2-1.1,1.7s-1.3.9-2.2,1.2-1.8.4-2.6.4-1.4-.3-2.1-.6c-.5-.4-1-1.1-1.3-1.9l2.6-.9c.2.4.4.6.6.8.3.2.5.3.9.3s.7,0,1.1-.2c.4,0,.6-.3.9-.4.2-.2.4-.4.4-.6v-.6c0-.2-.2-.4-.4-.4s-.4-.2-.7-.2h-1.1l-1.2.2c-1.1,0-1.9,0-2.6-.3s-1.2-.8-1.5-1.7c-.3-.6-.3-1.3,0-2,.2-.6.5-1.2,1.2-1.7s1.2-.9,2.1-1.2c.9-.3,1.6-.4,2.4-.4s1.3.3,1.9.6c.5.4.9.9,1.2,1.6l-2.6.7v.2Z"/>
      </g>
      <path class="cls-4" d="M465.5,124.4c-8.3,0-16.6-1.9-24.3-5.5-13.8-6.7-24.3-18.4-29.4-33.1-10.4-30.2,5.2-63.3,34.7-74,14.3-5.1,29.6-4.3,43.3,2.2,13.8,6.7,24.3,18.4,29.4,33.1,10.4,30.2-5.2,63.3-34.7,74-6.2,2.1-12.7,3.3-19,3.3ZM465.5,10.2c-6.2,0-12.4,1.1-18.4,3.2-28.6,10.3-43.7,42.4-33.6,71.6,4.9,14.3,15,25.6,28.5,32,13.2,6.3,28.1,7.1,41.8,2.1,28.6-10.3,43.7-42.4,33.6-71.6-4.9-14.3-15-25.6-28.5-32-7.4-3.5-15.4-5.4-23.5-5.4h.1Z"/>
      <g>
        <path class="cls-8" d="M421.3,69.6l.2,1.4c-.3,0-.5.3-.8.4-.2.2-.4.4-.5.6-.2.3-.3.5-.3.8v.9c0,.5.3,1.1.6,1.4s.8.7,1.3.9,1.2.3,2,0c.8,0,1.4-.3,1.9-.6s.9-.7,1.1-1.2.3-1,.3-1.5,0-.6-.3-.8c0-.3-.3-.5-.4-.7-.2-.2-.4-.4-.6-.4-.3,0-.5-.2-.8-.2l-.2-1.4c.4,0,.9,0,1.3.3.4.2.8.4,1.1.7.4.3.6.7.8,1.1.2.4.4.9.4,1.4,0,.8,0,1.6-.3,2.3-.3.7-.8,1.2-1.5,1.7-.7.4-1.5.7-2.5.9-1,0-1.9,0-2.7-.3-.8-.3-1.4-.7-1.9-1.3s-.7-1.3-.9-2.1v-1.4c0-.4.3-.9.4-1.2.3-.4.5-.7.9-1,.4-.4.8-.5,1.3-.7h.1Z"/>
        <path class="cls-8" d="M427.9,64.7l-9.4-1.6,1-6,1.2.2-.7,4.6,2.9.4.7-4.2,1.2.3-.7,4.2,2.9.4.7-4.6,1.2.2-1,6.1h0Z"/>
        <path class="cls-8" d="M430.2,54.5l-8.7-4,.6-1.3,7.5,3.5,1.8-4,1.2.5-2.4,5.4h0Z"/>
        <path class="cls-8" d="M434.7,45.8l-7.3-6.2,3.7-4.6,1,.8-2.9,3.6,2.2,1.9,2.7-3.3,1,.8-2.7,3.3,2.2,1.9,2.9-3.6,1,.8-3.8,4.6h0Z"/>
        <path class="cls-8" d="M441.6,38.1l-5.4-7.9,2.9-2.1c.5-.4,1.1-.6,1.5-.7.4,0,.9,0,1.3.2s.7.4,1,.9c.3.4.4.6.4,1v.9c0,.3-.3.5-.4.8h0c.3,0,.5-.2.9-.2s.7,0,1.1.3c.4.2.7.4,1,.9.3.4.4.8.4,1.2s0,.9-.4,1.3-.7.9-1.2,1.3l-2.9,2.1h-.2ZM439.7,32.8l1.6-1.1c.3-.2.4-.4.6-.6.2-.3.2-.5.2-.8s0-.5-.3-.8c-.3-.4-.5-.5-.9-.6s-.8,0-1.2.4l-1.6,1.2,1.6,2.4h0ZM442.1,36.2l1.7-1.2c.5-.4.9-.8,1-1.2s0-.8-.2-1.1-.4-.4-.6-.5c-.3,0-.5-.2-.9,0-.4,0-.6.2-1,.4l-1.7,1.2s1.7,2.4,1.7,2.4Z"/>
        <path class="cls-8" d="M450.8,32.4l-3-9.2,3.2-1.1c.7-.3,1.3-.3,1.9-.2.5,0,1,.3,1.3.6.4.4.6.8.8,1.3.2.5.3,1.1.2,1.6,0,.5-.4,1-.7,1.3s-.9.7-1.6,1l-2.4.8-.4-1.2,2.3-.8c.4-.2.8-.4,1-.5.3-.2.4-.4.4-.8v-1c0-.4-.3-.6-.4-.8-.2-.2-.4-.4-.8-.4s-.7,0-1.2.2l-1.7.5,2.6,8-1.4.4v.3ZM453.9,26.7l3.6,3.4-1.5.5-3.6-3.4,1.5-.5Z"/>
        <path class="cls-8" d="M462,29.5h-1.5l3-9.7h1.6l3.7,9.5h-1.5l-2.9-7.8h0l-2.3,8h-.1ZM462.1,25.6l4.9-.2v1.2l-4.9.2v-1.2Z"/>
        <path class="cls-8" d="M473,21.3l.3-1.2,7.1,1.7-.3,1.2-2.9-.7-1.9,8.2-1.4-.4,1.9-8.2-2.9-.6h0Z"/>
        <path class="cls-8" d="M487.4,24.8l-4.1,8.7-1.2-.6,4.1-8.7,1.2.6Z"/>
        <path class="cls-8" d="M499.3,33.1l-6,7.5-1-.8.6-8.6h0l-4.4,5.4-1.1-.9,6-7.5,1,.9-.6,8.6h0l4.4-5.4s1.1.8,1.1.8Z"/>
        <path class="cls-8" d="M505.2,45.7c.2-.3.4-.4.4-.7s.2-.5.2-.8v-.8c0-.3-.2-.5-.4-.8-.3-.4-.7-.8-1.2-1-.4-.2-1-.3-1.6-.2-.5,0-1.2.4-1.9.8-.6.4-1.2.9-1.4,1.4-.3.5-.4,1-.4,1.5s.2,1,.4,1.5c.3.4.6.8,1,1s.8.3,1.2.3.9-.2,1.3-.4l.2.4-1.5-2.3,1-.6,2.1,3.2-.9.6c-.6.4-1.3.7-2.1.7s-1.3,0-1.9-.4-1.1-.8-1.5-1.4c-.4-.7-.7-1.5-.7-2.2s.2-1.5.6-2.2,1.1-1.3,1.9-1.9c.6-.4,1.2-.7,1.9-.9s1.2-.2,1.8,0c.5,0,1.1.3,1.5.6s.9.7,1.2,1.2c.3.4.4.9.6,1.3,0,.4.2.9,0,1.3,0,.4-.2.9-.4,1.2-.2.4-.4.8-.8,1.1l-.8-1.4h.2Z"/>
      </g>
      <g>
        <path class="cls-8" d="M447.3,102.3l-3.4,6.5-.8-.4,2.9-5.7h0l-2.1.2.4-.8,2.2-.2.7.4h0Z"/>
        <path class="cls-8" d="M453.3,104.5c.3,0,.5.3.8.4s.4.4.6.8.3.7.3,1.2,0,1.1-.3,1.7c-.2.6-.4,1.2-.7,1.6s-.5.8-.9,1.1c-.4.3-.7.4-1.1.5h-1.2c-.4,0-.7-.3-1-.5-.3-.3-.4-.5-.5-.9s-.2-.7,0-1.1l.9.3c0,.4,0,.6.2.9s.4.4.8.6c.5.2,1.1,0,1.5-.4s.8-1,1.1-1.9h0c-.2.2-.4.3-.6.4-.2,0-.4.2-.7.2h-.7c-.4,0-.7-.4-1.1-.6-.3-.3-.4-.6-.5-1.1s0-.8,0-1.3.4-.8.6-1.1c.3-.3.6-.5,1.1-.6.6-.2,1.1-.2,1.5,0v-.2ZM453.1,105.2h-.9c-.3,0-.5.2-.7.4-.2.2-.4.4-.4.7v.9c0,.3.2.5.4.7.2.2.4.4.7.4h.6c.2,0,.4,0,.6-.2s.4-.3.4-.4c.2-.2.3-.4.3-.5v-.8c0-.3-.2-.5-.4-.7,0-.4-.4-.5-.6-.6h0Z"/>
        <path class="cls-8" d="M461.4,105.9c.3,0,.6,0,.9.3.3,0,.5.4.8.6s.4.6.5,1.1.2,1,0,1.7c0,.6-.2,1.2-.4,1.7-.2.5-.4.9-.6,1.2s-.5.5-.9.7-.7.2-1.2.2-.8-.2-1.1-.4c-.4-.2-.5-.4-.7-.7-.2-.3-.3-.6-.4-1.1h.9c0,.4.2.7.4,1,.2.3.5.4.9.4s1.1-.2,1.4-.6.6-1.2.6-2.1h0c-.2.2-.4.4-.5.4s-.4.3-.6.3h-.7c-.4,0-.8-.2-1.2-.4-.4-.3-.6-.5-.8-.9-.2-.4-.3-.8-.3-1.2s.2-.9.4-1.2c.3-.4.5-.6.9-.8.5-.2,1-.3,1.5-.3h.2ZM461.4,106.7c-.3,0-.6,0-.8.2-.3,0-.4.4-.6.5-.2.3-.3.5-.3.8s0,.6.2.8c0,.3.3.4.5.6.3.2.5.3.8.3h.6c.2,0,.4-.2.5-.4s.3-.4.4-.5.2-.4.2-.6,0-.5-.2-.8c0-.3-.3-.4-.5-.6-.2,0-.4,0-.8-.2h0Z"/>
        <path class="cls-8" d="M467.9,111.9v-.7l2.4-5.5h.5l.2,1.1h-.4l-1.9,4.3h0l4.4-.5v.8l-5.3.6h0ZM471.6,113l-.3-1.7v-.4l-.8-5.3h.9l1.1,7.2h-.9v.2Z"/>
        <path class="cls-8" d="M480.7,106.2l.3.7-4.8,1.7-.3-.7,4.8-1.7Z"/>
        <path class="cls-8" d="M485.8,108.2l-.4-.5.7-3.6c0-.4.2-.8.2-1.1v-.8c0-.2,0-.4-.2-.6s-.3-.4-.5-.4-.4-.2-.6,0c-.3,0-.4,0-.7.3-.3.2-.4.4-.5.5s-.2.4-.2.7,0,.4.3.7l-.7.4c-.2-.4-.4-.7-.4-1.2s0-.7.4-1.1c.2-.4.5-.6.9-.8.4-.3.7-.4,1.2-.4s.7,0,1.1.3.6.4.8.7c.2.3.3.4.3.7v1c0,.4-.2.9-.3,1.5l-.5,2.4h0l2.9-1.7.4.7-4.1,2.2h0Z"/>
        <path class="cls-8" d="M495.5,101.3c-.4.4-.8.6-1.3.6s-1,0-1.5-.4-1.1-.7-1.6-1.2c-.5-.6-.9-1.2-1.2-1.7s-.3-1.1-.3-1.5.4-.9.7-1.2.8-.5,1.3-.6,1,0,1.5.4,1.1.7,1.6,1.2c.5.6.9,1.2,1.2,1.7s.3,1.1.3,1.5-.3.9-.7,1.2ZM495,100.8c.4-.4.5-.8.4-1.4,0-.6-.5-1.2-1.2-2-.4-.4-.9-.8-1.2-1.1-.4-.3-.8-.4-1.2-.4s-.6,0-.9.4c-.4.4-.5.8-.4,1.4,0,.6.5,1.2,1.2,2,.4.4.9.8,1.2,1.1.4.3.8.4,1.2.4s.6-.2.9-.4Z"/>
        <path class="cls-8" d="M500.5,95.8l-.5-.4-.7-3.6c0-.4-.2-.8-.3-1.1s-.2-.5-.3-.7c0-.2-.3-.4-.4-.4-.2-.2-.4-.3-.6-.3-.3,0-.4,0-.6.2s-.4.3-.5.5c-.2.3-.3.4-.3.7v.7c0,.2.3.4.5.5l-.5.7c-.4-.3-.6-.5-.7-.9-.2-.4-.2-.7-.2-1.1s.2-.8.4-1.1c.3-.4.5-.6.9-.8.4-.2.7-.3,1.1-.2s.7.2,1,.4c.2.2.4.4.5.5.2.3.3.5.4.9s.3.9.4,1.5l.4,2.4h0l2-2.9.6.4-2.8,3.7.2.4Z"/>
        <path class="cls-8" d="M504.2,87.3l-.7-.3-3.4-5,.2-.5,1.1.4-.2.4,2.6,3.8h0l1.8-4,.7.3s-2.1,4.9-2.1,4.9ZM506.9,84.7l-1.6-.7h-.4l-4.8-2.1.4-.8,6.8,2.9-.4.7Z"/>
      </g>
    </g>
    <g>
      <path class="cls-7" d="M58.1,70.2c-5.2,3.3-13.6,5.5-23.1,5.5-15.9,0-28.8-6.1-28.8-13.6s12.9-13.6,28.8-13.6,17.8,2.1,23.1,5.5c-3.6-1-7.8-1.6-12.3-1.6-12.4,0-22.5,4.3-22.5,9.7s10.1,9.7,22.5,9.7,8.8-.6,12.3-1.6ZM57.9,57.2c-9.5,0-17.8,2.1-23.1,5.5,3.6-1,7.8-1.6,12.3-1.6,12.4,0,22.5,4.3,22.5,9.7s-10.1,9.7-22.5,9.7-8.8-.6-12.3-1.6c5.2,3.3,13.6,5.5,23.1,5.5,15.9,0,28.8-6.1,28.8-13.5s-12.9-13.6-28.8-13.6Z"/>
      <path class="cls-1" d="M132.1,55.8v4.6c-2.2-1.9-4.6-2.8-7-2.8s-4.9,1-6.7,2.9c-1.8,1.9-2.7,4.2-2.7,7s.9,5,2.7,6.9c1.8,1.9,4.1,2.8,6.7,2.8s2.5-.2,3.5-.7c.5-.2,1.1-.5,1.7-.9.6-.4,1.2-.8,1.8-1.4v4.7c-2.2,1.3-4.6,1.9-7,1.9-3.7,0-6.8-1.3-9.5-3.9-2.6-2.6-3.9-5.7-3.9-9.4s1.1-6.2,3.3-8.8c2.7-3.2,6.1-4.7,10.4-4.7s4.6.6,6.7,1.9ZM142.4,67.2c0-3.6,1.3-6.8,4-9.4,2.7-2.6,5.8-3.9,9.6-3.9s6.8,1.3,9.5,3.9,4,5.8,4,9.5-1.3,6.9-4,9.5c-2.7,2.6-5.9,3.9-9.7,3.9s-6.3-1.2-9-3.5c-2.9-2.6-4.4-5.9-4.4-10ZM146.3,67.2c0,2.9,1,5.2,2.9,7,1.9,1.8,4.1,2.8,6.6,2.8s5-.9,6.9-2.8c1.9-1.9,2.8-4.2,2.8-6.9s-.9-5.1-2.8-6.9c-1.8-1.9-4.1-2.8-6.8-2.8s-5,.9-6.8,2.8c-1.9,1.9-2.8,4.1-2.8,6.9h0ZM189.9,69.2l8,11h-4.8l-7.4-10.6h-.7v10.6h-3.9v-25.8h4.6c3.4,0,5.9.6,7.4,1.9,1.7,1.4,2.5,3.3,2.5,5.7s-.5,3.4-1.6,4.7c-1,1.3-2.4,2.2-4.1,2.5ZM185.1,66.3h1.2c3.7,0,5.5-1.4,5.5-4.2s-1.8-4-5.4-4h-1.4v8.2h0Z"/>
      <path class="cls-7" d="M225,58.2l-3.2,1.9c-.6-1-1.2-1.7-1.7-2-.6-.4-1.3-.5-2.2-.5s-2,.3-2.7.9c-.7.6-1.1,1.4-1.1,2.3s.9,2.3,2.8,3l2.6,1.1c2.1.8,3.6,1.9,4.6,3.1,1,1.2,1.4,2.7,1.4,4.5s-.8,4.3-2.4,5.9c-1.6,1.6-3.6,2.3-5.9,2.3s-4.1-.7-5.6-2c-1.4-1.3-2.3-3.2-2.7-5.6l3.9-.9c.2,1.5.5,2.6.9,3.1.8,1.1,2,1.7,3.5,1.7s2.2-.4,3-1.2c.8-.8,1.2-1.8,1.2-3.1s0-1-.2-1.4c-.1-.4-.3-.8-.7-1.2-.3-.4-.7-.7-1.1-1-.5-.3-1-.6-1.7-.9l-2.5-1c-3.5-1.5-5.3-3.7-5.3-6.6s.7-3.6,2.2-4.9c1.5-1.3,3.3-2,5.5-2s5.3,1.4,7,4.3h0ZM235.2,67.2c0-3.6,1.3-6.8,4-9.4,2.7-2.6,5.8-3.9,9.6-3.9s6.8,1.3,9.5,3.9c2.6,2.6,4,5.8,4,9.5s-1.3,6.9-4,9.5c-2.7,2.6-5.9,3.9-9.7,3.9s-6.3-1.2-9-3.5c-2.9-2.6-4.4-5.9-4.4-10h0ZM239.1,67.2c0,2.9,1,5.2,2.9,7,1.9,1.8,4.1,2.8,6.6,2.8s5-.9,6.9-2.8c1.9-1.9,2.8-4.2,2.8-6.9s-.9-5.1-2.8-6.9c-1.8-1.9-4.1-2.8-6.8-2.8s-5,.9-6.8,2.8c-1.9,1.9-2.8,4.1-2.8,6.9h0ZM276.5,54.4v15.6c0,2.2.4,3.8,1.1,4.9,1.1,1.5,2.6,2.2,4.6,2.2s3.5-.7,4.6-2.2,1.1-2.6,1.1-4.9v-15.5h3.9v16.6c0,2.7-.8,5-2.5,6.7-1.9,2-4.2,2.9-7,2.9s-5.1-1-7-2.9c-1.7-1.8-2.5-4-2.5-6.7v-16.6h3.9,0ZM312.8,69.2l8,11h-4.8l-7.4-10.6h-.7v10.6h-3.9v-25.8h4.6c3.4,0,5.9.6,7.4,1.9,1.7,1.4,2.5,3.3,2.5,5.7s-.5,3.4-1.6,4.7c-1,1.3-2.4,2.2-4.1,2.5h0ZM308,66.2h1.2c3.7,0,5.5-1.4,5.5-4.2s-1.8-4-5.4-4h-1.4v8.2ZM349.6,55.8v4.6c-2.2-1.9-4.6-2.8-7-2.8s-4.9,1-6.7,2.9c-1.8,1.9-2.7,4.2-2.7,7s.9,5,2.7,6.9c1.8,1.9,4.1,2.8,6.7,2.8s2.5-.2,3.5-.7c.5-.2,1.1-.5,1.7-.9.6-.4,1.2-.8,1.8-1.4v4.7c-2.2,1.3-4.6,1.9-7,1.9-3.7,0-6.8-1.3-9.5-3.9-2.6-2.6-3.9-5.7-3.9-9.4s1.1-6.2,3.3-8.8c2.7-3.2,6.1-4.7,10.4-4.7s4.6.6,6.7,1.9h0ZM375.3,58.1h-10.4v6.2h10v3.7h-10v8.6h10.4v3.7h-14.3v-25.8h14.3v3.7h0Z"/>
      <path class="cls-7" d="M391.5,58.1l2.1,2.7h-1.5l-1.9-2.6v2.6h-1.2v-6.4h1.3c.9,0,1.6.2,2,.5.5.4.7.9.7,1.4s-.1.8-.4,1.1c-.2.3-.6.6-.9.7h0s0,0,0,0ZM390.1,57.3h.2c.9,0,1.3-.3,1.3-.9s-.4-.9-1.3-.9h-.2v1.8h0ZM396.5,57.6c0,1.6-.5,2.9-1.6,4s-2.4,1.6-3.9,1.6-2.9-.6-3.9-1.6-1.6-2.4-1.6-4,.2-1.7.5-2.4c.4-.8.9-1.4,1.5-1.9,1-.9,2.2-1.3,3.5-1.3s1.6.2,2.3.5c1,.4,1.8,1.1,2.4,2,.6.9.9,2,.9,3h0ZM390.9,52.8c-1.3,0-2.4.5-3.3,1.4-.9.9-1.4,2.1-1.4,3.3s.5,2.5,1.4,3.4c.9.9,2,1.4,3.3,1.4s2.4-.5,3.3-1.4c.9-.9,1.4-2.1,1.4-3.4s-.2-1.4-.5-2.2c-.3-.7-.8-1.3-1.4-1.7-.8-.6-1.7-.9-2.8-.9Z"/>
    </g>
  </g>
</svg>