<svg xmlns="http://www.w3.org/2000/svg" width="21" height="21" viewBox="0 0 21 21" fill="none">
<g clip-path="url(#clip0_2874_3626)">
<path d="M7.14205 15.2997C8.74934 16.5483 10.7721 17.1373 12.7984 16.9468C14.8248 16.7564 16.7023 15.8008 18.0488 14.2746C19.3953 12.7484 20.1095 10.7663 20.0459 8.73207C19.9823 6.6978 19.1458 4.76423 17.7067 3.32508C16.2675 1.88593 14.3339 1.04941 12.2997 0.98584C10.2654 0.922273 8.28337 1.63644 6.75717 2.98293C5.23097 4.32942 4.27536 6.20698 4.0849 8.23332C3.89445 10.2597 4.48348 12.2824 5.73205 13.8897L0.38205 19.2197L1.80205 20.6397L7.13205 15.2997H7.14205ZM12.042 14.9797C11.2541 14.9797 10.4739 14.8245 9.74595 14.523C9.01799 14.2214 8.35656 13.7795 7.79941 13.2223C7.24226 12.6652 6.8003 12.0037 6.49877 11.2758C6.19724 10.5478 6.04205 9.76762 6.04205 8.97969C6.04205 8.19176 6.19724 7.41154 6.49877 6.68359C6.8003 5.95563 7.24226 5.2942 7.79941 4.73705C8.35656 4.1799 9.01799 3.73794 9.74595 3.43641C10.4739 3.13488 11.2541 2.97969 12.042 2.97969C13.6333 2.97969 15.1595 3.61183 16.2847 4.73705C17.4099 5.86227 18.042 7.38839 18.042 8.97969C18.042 10.571 17.4099 12.0971 16.2847 13.2223C15.1595 14.3475 13.6333 14.9797 12.042 14.9797Z" fill="#1D0800" fill-opacity="0.5"/>
</g>
<defs>
<clipPath id="clip0_2874_3626">
<rect width="20" height="20" fill="white" transform="matrix(-1 0 0 1 20.042 0.979492)"/>
</clipPath>
</defs>
</svg>